<?xml version="1.0" encoding="UTF-8"?><svg id="Layer_1" xmlns="http://www.w3.org/2000/svg" viewBox="0 0 467.97 156.1"><defs><style>.cls-1{fill:#fff;}.cls-2{fill:#447099;}.cls-3{fill:#ed6430;}</style></defs><polygon class="cls-1" points="280.59 53.48 295.51 53.48 295.51 96.07 301.05 96.07 301.05 53.48 315.94 53.48 315.94 48.6 280.59 48.6 280.59 53.48"/><path class="cls-1" d="M342.13,61.83c-2.18-1.33-4.77-1.99-7.79-1.99s-5.95.78-8.27,2.25c-2.36,1.51-4.17,3.66-5.47,6.46-1.29,2.81-1.92,6.09-1.92,9.94s.7,7.24,2.11,9.94c1.4,2.73,3.36,4.77,5.91,6.17,2.55,1.4,5.5,2.11,8.94,2.11,2.4,0,4.47-.18,6.24-.55,1.77-.33,3.55-.92,5.36-1.74v-4.77c-1.88.78-3.66,1.4-5.39,1.81s-3.73.63-5.98.63c-3.66,0-6.5-1.11-8.5-3.29-1.99-2.18-3.03-5.36-3.1-9.53h24.56v-3.36c0-3.21-.59-6.06-1.74-8.46-1.15-2.4-2.77-4.28-4.95-5.61ZM324.32,74.98c.33-3.4,1.37-6.02,3.07-7.91,1.7-1.88,3.99-2.81,6.87-2.81,2.03,0,3.73.44,4.99,1.33,1.29.89,2.29,2.14,2.92,3.77.63,1.63.96,3.51,1,5.61h-18.84Z"/><path class="cls-1" d="M369.61,59.91c-2.29,0-4.51.3-6.58.89-2.07.59-3.92,1.29-5.5,2.11l1.66,4.14c1.51-.74,3.1-1.37,4.8-1.92,1.7-.55,3.47-.81,5.32-.81,2.4,0,4.25.63,5.58,1.85,1.33,1.22,1.99,3.4,1.99,6.46v2.18l-6.13.26c-5.76.15-10.05,1.18-12.86,3.1-2.81,1.88-4.21,4.62-4.21,8.16,0,2.36.48,4.29,1.44,5.84.96,1.51,2.29,2.66,3.95,3.44,1.66.78,3.58,1.15,5.76,1.15s3.8-.22,5.21-.66c1.44-.44,2.7-1.11,3.77-1.99,1.07-.85,2.11-1.96,3.1-3.25h.26l1.03,5.25h3.92v-24.2c0-4.17-1-7.2-3.07-9.12-2.07-1.88-5.21-2.84-9.46-2.84ZM376.81,81.81c0,3.51-1.03,6.17-3.03,7.91-1.99,1.74-4.58,2.62-7.76,2.62-2.03,0-3.69-.52-4.91-1.48-1.22-.96-1.85-2.48-1.85-4.51,0-2.36.92-4.14,2.73-5.43,1.81-1.29,4.95-1.99,9.38-2.18l5.43-.22v3.29Z"/><path class="cls-1" d="M439.09,62.9c-1.99-2.03-4.95-3.07-8.87-3.07-2.44,0-4.65.52-6.69,1.51-2.03,1-3.62,2.51-4.8,4.58h-.3c-.85-2.03-2.14-3.58-3.99-4.58-1.81-1-4.1-1.51-6.8-1.51-1.51,0-2.96.22-4.28.66-1.33.44-2.55,1.07-3.62,1.92-1.07.81-1.99,1.88-2.7,3.1h-.3l-.81-5.02h-4.36v35.57h5.39v-18.84c0-2.77.33-5.13.96-7.06.63-1.92,1.66-3.32,3.1-4.32,1.44-1,3.32-1.48,5.69-1.48,1.66,0,3.03.33,4.14.96,1.11.66,1.92,1.59,2.48,2.88.55,1.29.81,2.88.81,4.8v23.09h5.36v-19.91c0-3.88.78-6.8,2.33-8.79,1.55-1.99,4.06-2.99,7.5-2.99,2.44,0,4.28.7,5.54,2.14,1.26,1.44,1.88,3.58,1.88,6.46v23.05h5.32v-23.31c0-4.54-1-7.83-2.99-9.86Z"/><path class="cls-1" d="M163.24,60.29c11.34,0,19.34,7.72,19.34,18.45s-7.99,18.38-19.34,18.38-19.2-7.72-19.2-18.38,7.86-18.45,19.2-18.45M163.24,87.89c5.4,0,9.09-3.42,9.09-9.16s-4.1-9.22-9.09-9.22-8.95,3.35-8.95,9.22c0,5.19,3.62,9.16,8.95,9.16"/><path class="cls-1" d="M226.15,45.77c3.21,0,5.53,2.3,5.53,5.34,0,3.19-2.32,5.49-5.53,5.49-3.48,0-5.6-2.3-5.6-5.49s2.32-5.34,5.6-5.34M221.17,60.96h9.91v35.53h-9.91v-35.53Z"/><path class="cls-1" d="M235.55,60.96h6.77v-8.27h9.91v8.27h10.71v9.22h-10.71v11.54c0,4.3.96,5.94,3.62,5.94,2.32,0,4.17-.82,6.08-2.32l5.05,6.26c-2.46,2.6-7.23,5.29-12.08,5.29-7.45,0-12.57-4.03-12.57-12.23v-14.49h-6.77v-9.22h0Z"/><path class="cls-1" d="M216.04,65.31c-2.43-2.33-7.46-5.34-14.62-5.34-10.19,0-16.18,4.21-16.18,11.12,0,10.72,17.08,10.98,21.11,13.35.73.41,1.16.97.9,1.8-.76,2.38-10.33,3.54-17.39-3.29l-5.76,6.86c2.56,3.4,8.22,7.38,17.39,7.38,8.52,0,15.89-3.45,15.89-11.33,0-7.06-6.57-9.9-12.42-11.56-1.66-.46-3.27-.84-4.66-1.21-2.3-.59-5.39-1.25-4.9-2.97.9-3.13,11.17-1.17,14.76,2.12l5.87-6.93h-.01Z"/><path class="cls-1" d="M105.47,61.05h9.92v1.85c1.85-1.71,5.2-2.6,7.94-2.6,10.81,0,17.52,7.46,17.52,18s-6.98,18.89-17.8,18.89c-3.42,0-6.57-.55-7.67-1.78v14.92h-9.92v-49.28h0ZM115.39,73.57v11.36c1.1,1.64,3.49,3.01,6.3,3.01,5.55,0,8.9-3.49,8.9-8.9,0-6.3-3.15-9.51-8.35-9.51-3.29,0-5.54,1.64-6.84,4.04"/><polygon id="fullLogo-8" class="cls-3" points="38.84 71.58 41.77 70.27 55.04 64.36 57.93 63.07 89.98 48.78 89.98 66.01 77.02 71.58 74.09 70.27 87.64 64.45 87.64 52.41 60.82 64.36 57.93 65.65 44.72 71.54 41.79 72.84 32.44 77.01 32.44 80.1 41.65 84.21 44.58 85.51 58.13 91.55 61.01 92.84 87.64 104.7 87.64 92.54 74.23 86.78 77.17 85.47 89.98 90.98 89.98 108.33 58.15 94.14 55.27 92.86 41.63 86.78 38.69 85.47 30.1 81.64 30.1 75.47 38.84 71.58"/><polygon class="cls-3" points="60.91 78.49 74.07 72.84 71.14 71.54 54.94 78.49 71.28 85.51 74.21 84.21 60.91 78.49"/><polygon id="fullLogo-9" class="cls-2" points="41.65 84.21 44.58 85.51 57.93 79.78 54.94 78.49 41.65 84.21"/><polygon id="fullLogo-10" class="cls-2" points="44.72 71.54 41.79 72.84 54.94 78.49 57.93 77.21 44.72 71.54"/><polygon id="fullLogo-11" class="cls-2" points="77.02 71.58 74.09 70.27 60.82 64.36 57.93 63.07 25.88 48.78 25.88 66.01 38.84 71.58 41.77 70.27 28.22 64.45 28.22 52.41 55.04 64.36 57.93 65.65 71.14 71.54 74.07 72.84 83.42 77.01 83.42 80.1 74.21 84.21 71.28 85.51 57.72 91.55 54.85 92.84 28.22 104.7 28.22 92.54 41.63 86.78 38.69 85.47 25.88 90.98 25.88 108.33 57.71 94.14 60.59 92.86 74.23 86.78 77.17 85.47 85.76 81.64 85.76 75.47 77.02 71.58"/><path class="cls-1" d="M273.71,64.03c0,1.78-1.4,3.17-3.21,3.17s-3.23-1.4-3.23-3.17,1.43-3.13,3.23-3.13,3.21,1.4,3.21,3.13ZM268.08,64.03c0,1.4,1.03,2.5,2.44,2.5s2.39-1.11,2.39-2.48-1.01-2.52-2.41-2.52-2.42,1.13-2.42,2.5ZM270.01,65.67h-.73v-3.13c.29-.06.69-.1,1.2-.1.59,0,.86.1,1.09.23.17.13.3.38.3.69,0,.34-.27.61-.65.73v.04c.3.11.48.34.57.76.1.48.15.67.23.78h-.78c-.1-.11-.15-.4-.25-.76-.06-.34-.25-.5-.65-.5h-.34v1.26h0ZM270.03,63.89h.34c.4,0,.73-.13.73-.46,0-.29-.21-.48-.67-.48-.19,0-.33.02-.4.04v.9h0Z"/></svg>